# xmcd
#
# Track frame offsets:
#	150
#	28045
#	54799
#	79362
#	108874
#	133078
#	155630
#	176898
#	195425
#	210149
#
# Disc length: 3093 seconds
#
# Revision: 2172748162
# Processed by: cddbd v1.5.2PL0 Copyright (c) Steve Scherf et al.
# Submitted via: EZCDAudioConverter 8.0.2.1
#
DISCID=7d0c130a
DTITLE=Trúc Quyên - Người Giàu Cũng Khóc
DYEAR=2006
DGENRE=
TTITLE0=Người Giàu Cũng Khóc
TTITLE1=Chuyện chúng mình
TTITLE2=Đám cưới nghèo
TTITLE3=Còn thương góc bếp trái hè
TTITLE4=Nỗi buồn ngày vu qui
TTITLE5=Bóng nhỏ đường chiều
TTITLE6=Đêm tâm sự
TTITLE7=Mưa rừng
TTITLE8=Như là giấc mơ
TTITLE9=Những đêm lạnh
EXTD=
EXTT0=
EXTT1=
EXTT2=
EXTT3=
EXTT4=
EXTT5=
EXTT6=
EXTT7=
EXTT8=
EXTT9=
PLAYORDER=
